<?xml version="1.0" encoding="utf-8"?>
<svg xmlns="http://www.w3.org/2000/svg" xmlns:xlink="http://www.w3.org/1999/xlink" version= "1.1" width="1920px" height="1300px" viewBox="-600 64 1920 1300">
<g id="layer1">
<g style="fill:rgb(25,107,132); fill-opacity:1.0; stroke-linejoin: miter">
<path d="M-600.001,62.20566C-600.4766,62.20566,-600.9328,62.39462,-601.26917,62.730957C-601.6055,63.067295,-601.79443,63.523468,-601.79443,63.999123L-601.79346,1364.0001C-601.79346,1364.9906,-600.9905,1365.7936,-600.0,1365.7936L1320.001,1365.7946C1320.4767,1365.7946,1320.9329,1365.6056,1321.2692,1365.2693C1321.6055,1364.933,1321.7944,1364.4768,1321.7944,1364.0011L1321.7935,64.00012C1321.7935,63.009624,1320.9905,62.20666,1320.0,62.20666L-600.001,62.20566 Z"/>
</g>
<g style="fill:rgb(0,0,0); fill-opacity:0.60784316; stroke-linejoin: miter">
<path d="M827.014,1287.1666L822.5593,1289.2756Q790.88885,1295.6492,637.2238,1299.4705Q482.4956,1303.2887,272.81757,1302.567Q72.707184,1301.5583,-47.269966,1296.6641Q-85.711975,1295.082,-110.59891,1293.2164L-131.51569,1291.2985Q-148.75302,1289.3187,-148.94682,1287.1666Q-143.71407,1280.5621,-6.0206604,1276.1766Q131.67271,1271.791,339.03357,1271.6244Q546.3945,1271.791,684.0878,1276.1766Q821.78125,1280.5621,827.014,1287.1666"/>
</g>
<g style="fill:rgb(255,183,159); fill-opacity:1.0; stroke-linejoin: miter">
<path d="M109.62021,614.7931C109.23783,609.80457,111.67659,605.4259,117.28868,601.2146C118.71484,600.15356,120.17287,598.97473,120.53427,598.56494C120.89485,598.1553,121.66161,597.5703,122.22651,597.2338C122.79095,596.8976,124.036095,595.8273,124.992134,594.856C128.73215,591.0344,130.29567,589.6402,132.27824,588.42474C133.42964,587.7089,135.11229,586.5597,136.04938,585.84576C136.99715,585.16327,137.98804,584.5024,138.24442,584.4143C138.53238,584.3153,139.2031,583.7644,139.78741,583.17065C140.37189,582.5768,140.978,582.04694,141.17061,581.98126C141.36237,581.9156,141.9159,581.4396,142.40437,580.87897C142.90323,580.35004,143.92563,579.57074,144.69351,579.20013C146.75229,578.1023,150.2885,575.6755,151.49994,574.5085C152.58481,573.4934,156.18797,570.00476,158.90941,567.3914C159.71701,566.61334,160.55594,565.71783,160.7363,565.4064C161.8784,563.6193,167.48013,559.5904,171.51382,557.6729C172.86876,557.0299,174.33994,556.2047,174.75497,555.8478C175.20207,555.4799,176.17252,554.96857,176.94173,554.7054C178.92871,554.0257,187.43925,549.3955,188.5552,548.36926C189.07674,547.90424,190.24777,547.03784,191.12146,546.45276C191.99515,545.8676,193.72122,544.74,194.95764,543.95874C196.18279,543.1458,197.4185,542.25745,197.67279,541.956C198.33163,541.265,203.83566,538.415,207.38014,536.95154C210.76416,535.5434,213.23875,534.1954,214.82439,532.97205C215.47348,532.46344,216.51848,531.8552,217.15979,531.6363C217.80032,531.4172,219.03764,530.7426,219.91106,530.15765C220.78523,529.5726,223.02458,528.37634,224.89214,527.5581C226.74913,526.7081,228.37074,525.9027,228.51924,525.7087C228.7528,525.44977,229.7878,524.9167,236.56396,521.81036C241.65416,519.4241,243.24843,517.80457,242.15224,516.0676C241.69734,515.3644,238.81439,513.84503,238.30135,514.02045C238.14151,514.0758,237.32594,513.8888,236.5093,513.5955C235.6934,513.3022,234.3194,512.94867,233.47186,512.7734C230.80103,512.2914,226.63025,511.71396,225.91223,511.70865C225.54803,511.69003,224.95848,511.64163,224.64757,511.5693C222.69432,511.09183,217.58415,510.90738,215.58359,511.2336C214.73834,511.3798,213.35838,511.5303,212.46939,511.54764C209.99585,511.6425,201.67297,512.95123,199.81473,513.5873C198.87402,513.8729,197.48381,514.09814,196.69109,514.0828C192.26605,513.9152,190.13759,514.285,185.72818,516.0446C175.5632,520.0236,171.65654,521.79047,170.47633,522.8387C169.81667,523.4219,168.07951,524.51776,166.6297,525.30084C164.47452,526.43164,163.60904,526.7274,161.8225,526.9455C159.01953,527.3316,153.19817,526.63916,150.29753,525.5912C146.53784,524.2286,143.9538,521.1749,143.70244,517.8248C143.60353,516.1758,145.04277,512.6407,145.94019,512.3336C146.22856,512.2351,147.048,511.59622,147.7606,510.95908C148.81284,509.9548,149.94437,509.38834,154.22565,507.67313C157.09732,506.5469,160.22462,505.11923,161.18373,504.46848C162.15327,503.85056,163.85966,502.97983,165.01372,502.5856C166.16716,502.1904,168.05553,501.22232,169.24855,500.41977C170.44157,499.61783,172.00955,498.7593,172.71408,498.51834C173.44052,498.23373,174.61449,497.6888,175.36026,497.2548C176.19194,496.7551,178.15785,496.11826,180.60628,495.53152C183.90918,494.723,184.98785,494.31857,187.6544,492.90494C190.30948,491.45914,193.39613,490.3314,207.77356,485.37613C227.75851,478.5009,225.18079,478.91782,233.22008,481.07083C238.96227,482.57834,239.49869,482.6818,242.26573,483.13058C243.55217,483.3348,245.933,483.70126,247.60637,483.98837C249.26848,484.2427,250.92076,484.57236,251.29698,484.73C251.64128,484.89847,252.09123,484.95908,252.2513,484.90457C252.44353,484.83878,253.21553,485.00418,253.9785,485.24435C255.14925,485.63095,259.83792,486.67538,263.82846,487.45804C265.09445,487.7051,271.76355,488.57327,274.68948,488.8608C277.13376,489.09824,279.81104,489.07736,280.61246,488.8029C280.9648,488.68283,281.81082,488.6436,282.53912,488.68088C283.23602,488.7286,285.59027,488.49588,287.76178,488.14615C291.20703,487.64774,291.987,487.41635,293.5438,486.5262C294.55655,485.929,296.02737,485.10287,296.8701,484.63516C297.6807,484.17935,298.72476,483.46445,299.18182,483.02176C299.61737,482.62167,300.52237,481.91806,301.16144,481.4849C301.80078,481.05142,303.19565,480.00113,304.28094,479.09305C305.3343,478.19577,306.85696,477.1013,307.66742,476.64584C309.18088,475.73312,312.6718,472.96414,313.06326,472.32867C313.20044,472.10275,314.6479,470.89194,316.26596,469.65787C320.55682,466.3992,321.57776,465.5139,322.21448,464.7585C322.51102,464.37054,323.24606,463.79727,323.81073,463.46088C324.376,463.12424,325.81155,461.88086,327.0237,460.71454C328.25638,459.5051,329.44827,458.489,329.67203,458.41223C329.89676,458.33572,330.4706,457.81656,330.92688,457.2665C331.38345,456.71646,331.89316,456.22028,332.05396,456.16574C332.66257,455.9568,340.378,448.37683,340.49207,447.8724C340.54382,447.71103,341.01227,447.3008,341.5557,447.00754C342.67526,446.30185,345.34433,443.8495,345.81967,443.04236C345.9994,442.73032,346.47745,442.244,346.88263,441.96268C347.28687,441.6807,347.91336,441.00116,348.28473,440.51675C348.64453,439.9997,350.90692,437.61435,353.2767,435.2283C359.69473,428.77243,360.92404,427.13425,366.0051,418.23633C372.3643,407.11032,373.63284,403.5986,373.55536,397.93317C373.52063,396.26242,373.50403,394.1204,373.51724,393.1135C373.50943,392.14948,373.48193,389.97607,373.4466,388.30478C373.44397,386.62347,373.52728,384.98404,373.65332,384.6189C373.82184,384.27444,373.88257,383.82455,373.82764,383.66458C373.77295,383.50406,374.57132,381.54843,375.5711,379.34464C376.60303,377.13025,377.39215,375.24948,377.34796,375.12106C377.31458,375.0252,378.12903,373.63702,379.1546,372.03293C380.1599,370.4714,380.9947,369.04065,381.01468,368.89096C381.0347,368.74072,381.97607,367.2016,383.173,365.46774C384.3367,363.74445,385.92395,361.26828,386.66333,359.97745C387.40286,358.6861,388.3349,357.3286,388.6959,356.91907C389.9166,355.57037,394.9221,347.9155,396.1766,345.4097C396.71442,344.3665,397.60196,342.77487,398.18372,341.85895C399.94962,339.0709,419.72342,324.00623,421.24335,327.39984C422.80573,330.80658,422.3051,333.51727,422.41876,333.6422C431.8565,344.11588,419.89093,350.8981,433.88287,391.78784C447.47977,431.5235,458.4816,464.09308,458.35284,464.13718C458.19272,464.192,458.01395,464.61115,457.96494,465.09344C457.87143,465.55472,457.56573,467.48532,457.2378,469.35135C456.9209,471.24933,456.43915,474.0274,456.23703,475.52924C456.0029,477.04138,455.68237,478.51123,455.52338,478.77972C455.3653,479.049,455.2609,479.37134,455.3161,479.5312C455.3925,479.75574,454.9903,481.71878,454.37704,484.11258C453.33905,488.19064,452.7773,490.31564,452.535,490.86362C452.14673,491.81998,451.30353,497.6215,451.31653,499.22794C451.33362,500.01004,451.2989,501.06003,451.19608,501.59592C451.1044,502.16434,451.09857,502.775,451.15323,502.9354C451.27383,503.28793,450.6267,509.45163,450.28796,511.28586C450.18488,511.82254,449.95062,513.33435,449.76865,514.6851C449.58664,516.0362,449.21582,517.88135,448.98727,518.78265C448.72687,519.6952,448.47992,520.96124,448.39954,521.6692C448.3404,522.33374,448.08347,523.6742,447.84518,524.65094C447.60638,525.6276,447.23434,527.36505,447.0617,528.5343C446.85666,529.714,446.5171,531.44116,446.26743,532.3853C445.8613,533.8132,445.3891,536.409,444.82877,540.0018C444.51337,542.11426,443.47537,551.6338,443.55145,551.85815C443.60657,552.0183,443.5128,552.37286,443.32248,552.6529C443.14282,552.96423,443.0412,553.60803,443.06647,554.1005C443.1233,554.582,442.91782,557.0152,442.62692,559.51263C442.30447,562.0218,442.08774,564.42255,442.09106,564.8513C442.10535,565.31177,441.9009,566.4917,441.63007,567.4786C441.32748,568.4779,440.98346,569.6693,440.85883,570.1417C440.4223,571.7944,439.75534,574.13477,439.14993,576.1316C438.84784,577.2372,438.306,579.10516,437.99426,580.28595C437.7145,581.4553,437.25653,583.15137,437.01706,584.02057C436.7778,584.89026,436.44525,586.22156,436.30112,586.9508C435.68402,590.1686,434.35294,596.53107,433.96948,598.12976C433.73077,599.1066,433.38828,600.51245,433.24493,601.24194C432.97623,602.55096,432.04962,605.9105,431.58847,607.1781C431.45206,607.511,430.87634,609.176,430.2362,610.8624C429.62827,612.53827,428.99017,614.4385,428.81302,615.0724C428.1379,617.7023,427.98163,618.29266,427.78616,619.2901C427.69406,619.8585,427.44556,620.9099,427.23724,621.6614C427.05014,622.36945,426.70123,624.27924,426.4678,625.89825C426.17255,627.86066,425.57742,629.78265,424.66077,631.7071C422.86917,635.3627,421.07034,636.8016,415.15652,639.2909C412.92517,640.19763,410.9089,641.2101,410.61133,641.49054C410.35635,641.7924,409.21564,642.43353,408.13794,642.9456C405.726,644.0568,401.91214,646.61523,401.41516,647.46533C401.20364,647.7884,400.406,648.49084,399.62823,649.04315C393.76944,653.0523,392.12,654.4049,390.2413,656.5511C387.81012,659.28046,382.104,664.9919,380.09268,666.6468C374.24097,671.51294,372.10602,672.49365,369.48575,671.6368C367.8644,671.082,365.954,669.2652,365.4497,667.79114C365.06577,666.6702,363.1228,664.75714,362.24417,664.70013C361.9439,664.65924,358.9941,665.45435,355.68173,666.4446C349.24902,668.3597,341.90372,670.01337,338.69214,670.25305C337.61154,670.3366,336.232,670.59406,335.6551,670.7912C333.6043,671.4933,329.98874,670.76184,326.37476,668.88385C324.5149,667.9458,322.9432,667.01544,322.8889,666.85547C322.8228,666.6632,322.10095,666.12286,321.27185,665.5827C320.48618,665.06396,319.46286,664.37604,319.07544,664.07904C318.6869,663.7825,317.1351,662.5953,315.63712,661.46124C311.03622,657.9526,310.13022,657.1886,308.92105,655.9558C308.45654,655.4344,307.07407,654.0099,305.88663,652.84125C304.72012,651.62964,303.6935,650.5129,303.62784,650.3206C303.5073,649.96814,300.0841,646.45026,297.52682,644.10333C296.6852,643.3175,294.62302,641.2668,292.97067,639.57715C291.28665,637.8981,289.44046,636.0598,288.90085,635.52826C287.54105,634.2753,286.74103,631.9363,286.74008,629.1086C286.70908,626.6129,287.04572,623.0973,287.4022,622.15204C287.6639,621.45355,288.59583,614.65576,289.04333,610.3144C289.20193,608.6851,289.37103,607.0876,289.44342,606.77625C289.51584,606.465,289.69794,605.11383,289.84784,603.77423C289.99792,602.4339,290.20004,600.93243,290.27087,600.4074C290.37366,599.87115,290.6508,598.2731,290.89575,596.79333C291.12,595.3558,291.50073,593.4357,291.74036,592.56616C292.62585,589.39984,292.78943,587.0522,292.27292,585.4391C291.6681,583.4623,290.94626,582.922,286.85263,581.3158C284.04843,580.2349,282.57962,580.02124,278.77957,580.31976C276.78882,580.4642,270.00806,583.142,268.99936,584.16754C268.55338,584.64246,266.51065,586.41516,264.44666,588.12415C262.39288,589.865,259.82935,592.1022,258.8096,593.0957C257.7568,594.10034,256.60843,595.13745,256.23547,595.40857C255.8629,595.6794,254.92842,596.7148,254.1545,597.6957C252.2141,600.185,252.10796,600.2934,248.66515,603.7264C244.61668,607.79675,243.85191,608.5952,243.15233,609.58655C242.73943,610.15717,240.88779,611.6504,238.24692,613.5562C237.29884,614.2385,236.20161,615.0074,235.80757,615.32135C234.60454,616.1984,230.23882,620.80676,229.5516,621.9371C229.18172,622.5291,228.33376,623.71405,227.67653,624.512C226.9978,625.3528,226.04297,626.5383,225.52367,627.2176C223.24469,630.1808,222.185,631.5815,221.9513,631.94745C221.84627,632.1628,221.44333,632.65857,221.07143,633.0364C220.7313,633.4035,220.0114,634.4375,219.52597,635.31976C218.57423,636.9336,217.18764,638.9475,215.70241,640.78015C213.56003,643.41046,212.66046,644.7567,211.61435,646.61804C209.95795,649.72687,207.26949,653.7963,204.70427,657.1802C202.20224,660.4348,200.54222,663.1149,198.0834,667.7506C197.22884,669.3322,195.7487,671.8074,194.78577,673.2824C188.38223,682.91956,186.14148,686.729,186.40501,687.4985C186.54745,687.9147,183.54086,692.30865,182.3498,693.43207C181.68039,694.09094,180.43668,695.2678,179.5963,696.0567C178.75697,696.84534,177.83076,697.59155,177.57446,697.67914C177.31807,697.76733,176.42317,698.3953,175.58287,699.0771C172.23051,701.8351,166.47305,703.7339,162.6998,703.37805C157.0295,702.8126,152.18356,696.9175,153.21507,691.8748C153.62712,689.83685,155.17195,686.0868,156.29424,684.44904C156.77069,683.74945,157.98485,681.5437,158.99779,679.58673C160.0421,677.6183,161.40324,675.00494,162.0255,673.78925C162.66895,672.5314,163.64879,670.4773,164.14194,669.19885C164.6674,667.90985,165.78517,665.7372,166.6528,664.40204C167.50972,663.0355,168.96643,660.3885,169.89395,658.4959C170.80054,656.64655,172.22531,654.0109,173.06096,652.6868C174.41466,650.46967,176.2939,647.07025,177.67563,644.3065C177.97087,643.7043,178.53122,642.8322,178.91301,642.3795C179.28423,641.8946,179.6633,641.1202,179.74544,640.627C180.13503,638.41736,181.84442,632.5346,182.62178,630.6218C185.21829,624.3993,189.23924,616.90216,191.33989,614.3578C193.36597,611.90985,197.71648,604.0134,202.7965,593.6481C205.95868,587.1964,207.06822,585.31366,209.75224,582.0682C210.11275,581.65784,211.31404,580.4598,212.44139,579.46515C217.49246,574.8731,218.60541,573.4184,218.16707,572.1365C217.99146,571.6235,217.60152,571.11304,217.27975,571.00806C216.2913,570.6304,213.85463,571.35693,211.11407,572.8672C209.64296,573.69324,206.96347,574.86035,205.13708,575.48553C203.3425,576.09985,201.52773,576.8638,201.1446,577.2093C200.75099,577.52313,198.86288,578.4916,196.9416,579.3635C195.0209,580.2359,192.25858,581.68225,190.84062,582.56116C189.3801,583.41864,187.65263,584.33246,186.94734,584.5738C186.24232,584.81476,184.66365,585.6413,183.40616,586.4655C182.16989,587.24664,179.36618,588.88617,177.22261,590.0489C172.96736,592.36426,171.68837,593.1241,170.37877,594.10986C169.8994,594.488,168.34435,595.5931,166.93864,596.6111C165.49028,597.60736,163.96826,598.8084,163.49,599.2945C163.03247,599.7374,162.1279,600.4405,161.50989,600.83136C158.83443,602.4272,155.45688,604.6926,155.01102,605.1674C154.75603,605.46954,153.47676,606.2294,152.2288,606.871C150.93758,607.4914,149.48819,608.3816,148.9885,608.8031C148.5311,609.2459,147.41237,609.9509,146.59077,610.3755C145.6732,610.8326,143.8112,612.4005,141.97313,614.2464C140.07169,616.2219,138.26277,617.73584,137.11107,618.34485C136.05508,618.9208,132.47707,620.18115,128.36345,621.44543C121.59966,623.5448,121.332436,623.6005,119.145676,623.38196C116.42285,623.06104,113.485756,621.38196,111.451614,618.8917C110.034836,617.15656,109.74096,616.5058,109.62021,614.7931L109.6183,614.7881 Z M330.55646,629.0068C331.59283,630.04785,332.66162,631.0787,332.90973,631.27985C334.6142,632.8086,336.10623,634.55334,336.80194,635.8544C338.18365,638.53174,339.7773,639.6336,342.87573,640.00507C345.83496,640.38855,348.71735,640.54755,349.166,640.3941C349.39066,640.3173,350.6104,640.22217,351.8316,640.2336C354.22028,640.2039,356.02454,640.8752,358.2983,642.6032C361.27295,644.9141,364.60904,646.9226,365.34784,646.8849C367.2751,646.76263,368.23532,644.9659,368.87384,640.45154C369.26904,637.6316,370.89423,634.53357,374.22238,630.13745C374.77396,629.448,376.39975,626.45715,377.8758,623.55365C379.35294,620.6495,380.93628,617.74524,381.402,617.1202C383.22565,614.70703,384.71298,613.1951,385.4503,612.9431C387.3086,612.30695,388.0637,611.58344,388.45865,610.1233C388.6772,609.29724,388.79666,608.18243,388.7495,607.6257C388.63586,606.77,388.735,605.80475,389.4251,601.0224C389.53787,600.41113,389.7966,599.2843,390.0374,598.5217C390.27765,597.75995,390.62183,596.56757,390.77637,595.8703C390.9316,595.17267,391.3678,593.4129,391.7518,591.92084C392.6575,588.60425,393.85086,582.3611,393.70773,581.94446C393.64212,581.7521,393.75696,581.35535,393.93628,581.0433C394.50705,580.09607,393.11887,576.5614,391.5209,574.9252C390.36487,573.74536,386.69504,571.49304,383.07114,569.69037C382.48007,569.4272,380.89865,568.57263,379.5753,567.8435C378.25247,567.11487,375.44675,565.82007,373.3936,564.94714C371.32,564.1179,369.42865,563.2972,369.20258,563.16016C367.36307,562.1786,358.9352,559.6213,356.8771,559.466C355.35452,559.3072,353.49753,560.05005,352.87314,561.0511C352.5666,561.51404,351.40125,563.1305,350.2668,564.62787C349.13263,566.1254,348.116,567.54755,347.9463,567.7843C346.57187,570.0445,344.96152,572.24255,343.70822,573.6022C342.86902,574.4978,342.0311,575.5008,341.8191,575.8238C341.65033,576.16766,341.33197,576.4918,341.17188,576.5463C340.43478,576.79834,336.89664,583.0923,335.7327,586.1757C335.5855,586.5836,335.09277,587.8624,334.65125,588.9799C333.8537,591.04285,333.1626,594.35785,333.39282,595.0306C333.65588,595.8,332.4776,605.2239,331.7298,608.16486C331.4078,609.4205,331.18094,610.5364,331.22467,610.6647C331.258,610.7604,331.1136,611.48987,330.93768,612.2308C330.74036,613.0137,330.16827,615.21375,329.6596,617.1781C328.1319,623.0706,327.87842,624.83997,328.30634,626.1967C328.48203,626.7095,329.48795,627.97595,330.55646,629.0068L330.55466,629.0018 Z"/>
</g>
<g style="fill:rgb(255,255,255); fill-opacity:1.0; stroke-linejoin: miter">
<path d="M524.0096,433.28696L406.32132,335.989L344.98993,410.1736L341.0371,414.95483L458.72632,512.25415L524.0096,433.28696"/>
</g>
<g style="fill:rgb(0,0,0); fill-opacity:1.0; stroke-linejoin: miter">
<path d="M470.00662,611.4112L470.00705,611.4109L470.0071,611.4111L470.00662,611.4112"/>
</g>
<g style="fill:rgb(146,159,168); fill-opacity:1.0; stroke-linejoin: miter">
<path d="M359.0451,678.66614L353.17578,667.93744L347.30627,657.2082Q356.2185,652.3325,365.13095,647.45636Q371.00067,658.1855,376.87012,668.9143L359.0451,678.66614 Z"/>
</g>
<g style="fill:rgb(253,217,8); fill-opacity:1.0; stroke-linejoin: miter">
<path d="M324.24597,662.40186L324.48447,656.62665Q326.79092,639.1316,339.9002,628.3393Q353.1022,617.552,371.40958,619.0524Q388.90475,621.3588,399.69736,634.4675Q403.15616,638.7059,405.45544,643.7506L407.4122,648.94684Q409.0528,654.3198,409.22147,660.2027Q409.23288,678.26965,397.55386,690.56903Q385.8748,702.86774,367.83212,703.7907Q349.7654,703.8017,337.46674,692.12305Q325.16806,680.4447,324.24597,662.40186 Z"/>
</g>
<g style="fill:rgb(238,170,1); fill-opacity:1.0; stroke-linejoin: miter">
<path d="M330.89386,662.12256L331.09595,657.2513Q333.0417,642.4942,344.0986,633.39056Q355.2347,624.29224,370.6771,625.55756Q385.43344,627.5031,394.53717,638.5609Q397.45425,642.13605,399.3934,646.3905L401.04443,650.7736Q402.4281,655.3052,402.57092,660.2681Q402.58023,675.50745,392.72913,685.8814Q382.87833,696.256,367.65854,697.03424Q352.42,697.0434,342.04614,687.1928Q331.6725,677.34174,330.89386,662.12256 Z"/>
</g>
<g style="fill:rgb(255,183,13); fill-opacity:1.0; stroke-linejoin: miter">
<path d="M331.7695,662.08624L331.96664,657.3339Q333.86502,642.9377,344.65176,634.0564Q355.51578,625.1802,370.58057,626.4148Q384.9764,628.31287,393.8576,639.1004Q396.7035,642.5883,398.59525,646.7384L400.20596,651.01483Q401.55582,655.4355,401.69492,660.277Q401.7042,675.144,392.0937,685.2643Q382.48355,695.38525,367.63593,696.1449Q352.7696,696.1536,342.64948,686.5436Q332.52927,676.9333,331.7695,662.08624 Z"/>
</g>
<g style="fill:rgb(238,170,1); fill-opacity:1.0; stroke-linejoin: miter">
<path d="M362.97165,637.4623L363.0157,641.0666Q360.01834,642.3411,358.16837,645.0539Q356.3184,647.7663,356.36053,651.2095Q356.38745,653.4152,357.2726,655.39514Q358.1568,657.3213,359.627,658.7561Q361.0973,660.1909,363.09818,661.0272Q365.04526,661.86426,367.25092,661.8375L367.57382,661.8337Q368.22046,661.9334,368.6567,662.4121Q369.09305,662.8912,369.10175,663.59033Q369.11084,664.3435,368.57922,664.8878Q368.04803,665.43274,367.2949,665.44165Q366.54175,665.451,365.99713,664.91956Q365.4529,664.3882,365.4434,663.63513L356.51376,663.7442Q356.5348,665.46545,357.09177,667.01904Q357.59433,668.5195,358.52518,669.85315Q359.40158,671.1339,360.65128,672.141Q361.90057,673.0942,363.41397,673.6674L363.46405,677.7559L372.5014,677.646L372.44568,673.0729Q375.01068,671.64264,376.5399,669.0953Q378.06976,666.6014,378.0317,663.4814Q378.00485,661.27576,377.1198,659.2956Q376.2354,657.36957,374.765,655.93506Q373.2949,654.5,371.2939,653.66364Q369.34692,652.8266,367.1414,652.85333L366.81836,652.8578Q366.17157,652.7576,365.73477,652.225Q365.2985,651.74603,365.29077,651.1004Q365.28146,650.3471,365.8121,649.74866Q366.34366,649.20447,367.09653,649.1951Q367.8496,649.1862,368.39484,649.7712Q368.93933,650.3026,368.94858,651.05585L377.87854,650.947Q377.84058,647.8263,376.24933,645.3174Q374.6584,642.8077,372.0593,641.44037L372.00943,637.352 Z"/>
</g>
<g style="fill:rgb(253,217,8); fill-opacity:1.0; stroke-linejoin: miter">
<path d="M362.2203,637.92346L362.26428,641.5279Q359.26706,642.8021,357.41708,645.51465Q355.5671,648.2275,355.60898,651.6708Q355.636,653.8762,356.5211,655.8563Q357.40555,657.78235,358.87567,659.21686Q360.3458,660.6519,362.34677,661.488Q364.2937,662.32544,366.4995,662.2986L366.82227,662.2948Q367.46927,662.3943,367.90552,662.8729Q368.34164,663.3522,368.3503,664.0512Q368.35928,664.8045,367.82803,665.3491Q367.29663,665.8935,366.5435,665.90265Q365.79034,665.912,365.246,665.38074Q364.70135,664.8493,364.69226,664.0959L355.76215,664.2055Q355.7833,665.9266,356.3403,667.4799Q356.8429,668.98035,357.77383,670.31415Q358.6503,671.5948,359.90002,672.60187Q361.14917,673.55505,362.66263,674.1286L362.71277,678.2168L371.75012,678.1069L371.69443,673.534Q374.25928,672.1037,375.78845,669.5563Q377.31842,667.06244,377.28015,663.9423Q377.25357,661.737,376.3682,659.75684Q375.48416,657.83057,374.01376,656.39594Q372.54355,654.9611,370.5425,654.1247Q368.59543,653.2875,366.38977,653.31476L366.0668,653.31866Q365.42007,653.2186,364.98334,652.68585Q364.54703,652.2069,364.53915,651.5614Q364.53,650.8084,365.06064,650.2101Q365.59216,649.66547,366.34525,649.6561Q367.0981,649.6471,367.64328,650.23236Q368.18784,650.7635,368.19724,651.5169L377.1272,651.40826Q377.08914,648.28754,375.4982,645.77826Q373.90726,643.2687,371.3079,641.9017L371.25797,637.81287 Z"/>
</g>
<g style="fill:rgb(255,183,159); fill-opacity:1.0; stroke-linejoin: miter">
<path d="M392.01596,609.76843L390.55914,610.5543Q380.7485,615.47614,377.68344,620.92285Q374.5082,627.31775,377.0164,635.5212Q380.6159,646.44165,387.28906,649.6388Q389.8556,651.0028,393.85547,650.46Q397.3625,649.80493,401.35574,647.61615Q406.3034,645.0186,416.04108,637.7188L398.55905,615.2281L392.01596,609.76843"/>
</g>
<g style="fill:rgb(255,183,159); fill-opacity:1.0; stroke-linejoin: miter">
<path d="M421.39856,654.3306L421.39856,654.3306L421.39862,654.3307L421.39856,654.3306"/>
</g>
<g style="fill:rgb(251,187,140); fill-opacity:1.0; stroke-linejoin: miter">
<path d="M14.49818,874.36456L334.6784,874.3651L654.85864,874.36566Q654.85864,1080.0101,654.85864,1285.6549Q334.6784,1285.6554,14.49818,1285.6561Q14.49818,1080.0101,14.49818,874.36456"/>
</g>
<g style="fill:rgb(232,128,52); fill-opacity:1.0; stroke-linejoin: miter">
<path d="M-3.7889938,853.8523L334.67838,853.85284L673.1457,853.8535Q673.1457,908.3048,673.1457,962.75604Q334.67838,962.7566,-3.7889938,962.75714Q-3.7889938,908.30475,-3.7889938,853.8523"/>
</g>
<g style="fill:rgb(0,0,0); fill-opacity:0.4509804; stroke-linejoin: miter">
<path d="M-3.7889938,853.8523Q-3.7889938,860.949,-3.7889938,868.0457L673.1385,868.0445Q673.1457,860.949,673.1457,853.8535L334.67838,853.85284L-3.7889938,853.8523 Z"/>
</g>
<g style="fill:rgb(0,0,0); fill-opacity:1.0; stroke-linejoin: miter">
<path d="M374.12894,627.6521L374.129,627.6523L374.12903,627.65247L374.129,627.6523L374.12894,627.6521L374.129,627.6523L374.12903,627.65247Q374.129,627.6523,374.12894,627.6521"/>
</g>
<g style="fill:rgb(0,0,0); fill-opacity:1.0; stroke-linejoin: miter">
<path d="M374.12894,627.6521L374.129,627.6523L374.12903,627.65247L374.129,627.6523L374.12894,627.6521L374.129,627.6523L374.12903,627.65247Q374.129,627.6523,374.12894,627.6521"/>
</g>
<g style="fill:rgb(0,0,0); fill-opacity:0.45882353; stroke-linejoin: miter">
<path d="M273.71356,855.7384L395.64325,855.7395L395.64325,864.3403L273.71356,864.3414L273.71356,855.7384"/>
</g>
<g>
<g style="fill:rgb(232,128,52); fill-opacity:1.0; stroke-linejoin: miter">
<path d="M428.45215,1022.7991Q426.809,1022.7991,425.67572,1023.36566Q424.3158,1024.0457,423.35257,1025.0089Q422.50266,1025.8588,421.7094,1027.4453Q421.14282,1028.5786,421.14282,1030.335Q421.14282,1031.978,421.7094,1033.1113Q422.38934,1034.4712,423.35257,1035.4343Q424.3158,1036.3976,425.67572,1037.0776Q426.809,1037.644,428.45215,1037.644Q430.09525,1037.644,431.22852,1037.0774Q432.58835,1036.3976,433.55157,1035.4343Q434.5148,1034.4712,435.19473,1033.1113Q435.8746,1031.7515,435.8746,1030.335Q435.8746,1028.805,435.19473,1027.4452Q434.40146,1025.8586,433.55157,1025.0088Q432.58835,1024.0455,431.22852,1023.36554Q430.09525,1022.7991,428.45215,1022.7991 Z M132.11551,1033.4513Q145.77077,1033.4514,153.5333,1042.0637Q157.10297,1045.9733,159.36938,1052.2626Q161.46585,1058.1555,161.46585,1065.9744Q161.46585,1081.2727,153.5333,1089.8853Q145.65746,1098.4409,132.11551,1098.4409L113.417435,1098.4409L113.417435,1033.4514 Z M206.56789,1056.0022Q215.5203,1056.0022,219.54323,1061.7817Q223.84947,1067.9575,223.84947,1078.1564Q223.84947,1088.3555,219.54323,1094.5314Q215.5203,1100.3108,206.56789,1100.3108Q202.71494,1100.3108,198.91866,1098.6677Q195.5757,1097.1945,193.5359,1094.5314Q191.26945,1091.585,190.30623,1087.5623Q189.11632,1082.6892,189.11632,1078.2698Q189.11632,1073.6235,190.30623,1068.7509Q191.26945,1064.728,193.5359,1061.7817Q195.91566,1058.6653,198.91866,1057.362Q202.09167,1056.0022,206.56789,1056.0022 Z M475.42404,1056.0022Q484.37646,1056.0022,488.39944,1061.7814Q492.70566,1067.9575,492.70566,1078.1562Q492.70566,1088.3553,488.39944,1094.5312Q484.37646,1100.3108,475.42404,1100.3108Q471.57108,1100.3108,467.77472,1098.6675Q464.43185,1097.1943,462.39203,1094.5312Q460.12558,1091.585,459.16235,1087.5621Q457.97247,1082.6891,457.97247,1078.2695Q457.97247,1073.6235,459.16235,1068.7507Q460.12558,1064.7277,462.39203,1061.7814Q464.7718,1058.665,467.77472,1057.3618Q470.94778,1056.002,475.42404,1056.0022 Z M348.44675,1081.046L348.44675,1093.1147Q346.12372,1095.4377,344.99048,1096.3445Q342.78073,1098.1008,341.13757,1098.8943Q338.9278,1099.9707,336.8313,1100.4241Q334.2816,1100.9907,331.95847,1100.9905Q330.03198,1100.9905,328.16217,1100.424Q326.46234,1099.9141,325.10245,1098.894Q323.7993,1097.8741,323.06262,1096.1178Q322.2128,1094.0214,322.2128,1092.2083Q322.2128,1089.9983,323.6293,1087.7886Q324.93246,1085.6921,328.2755,1084.2756Q332.2417,1082.5759,336.37805,1081.8394Q340.91092,1081.0461,348.44675,1081.046 Z M93.69945,1024.4424L93.69945,1029.3152Q93.69945,1031.185,95.5126,1031.5249Q96.64583,1031.9216,102.028595,1032.8848L102.028564,1099.1774L95.51259,1100.4241Q93.69945,1100.7639,93.69945,1102.6338L93.69945,1107.5067L132.11551,1107.5066Q150.47363,1107.5066,161.69249,1096.1179Q167.13193,1090.3953,170.02165,1083.0293Q173.02464,1075.3235,173.02464,1065.9744Q173.02464,1047.2765,161.69249,1035.7745Q150.70029,1024.4424,132.11551,1024.4424 Z M278.69714,1047.7299Q267.8749,1047.7297,259.20587,1057.1354L259.20587,1057.2488L258.29926,1050.9026Q257.6194,1048.8062,255.52289,1048.8062L241.13101,1048.8062L241.13101,1053.6791Q241.13101,1055.5488,242.71753,1055.8888Q243.62404,1056.172,249.46019,1057.2488L249.46019,1099.1776L242.71753,1100.424Q241.13101,1100.7639,241.13101,1102.6338L241.13101,1107.5066L268.15826,1107.5066L268.15826,1102.6337Q268.15826,1100.7639,266.4018,1100.424Q259.82907,1099.0076,259.65918,1099.0076L259.65918,1064.218Q267.025,1056.0022,275.6942,1056.0022Q287.9896,1056.0022,287.9896,1070.1672L287.9896,1107.5066L306.80103,1107.5068L306.80103,1102.5205Q306.80103,1100.7073,304.9312,1100.3108Q303.51462,1099.8572,298.30182,1098.894L298.30182,1069.9972Q298.30182,1060.025,293.31573,1053.9058Q288.21628,1047.7297,278.69714,1047.7299 Z M414.8534,1048.8062L414.8534,1053.6788Q414.8534,1054.4722,415.3633,1055.0952Q415.87323,1055.7188,416.60992,1055.8888Q417.62982,1056.1154,423.35257,1057.1354L423.35257,1099.0076L416.60992,1100.3108Q415.87323,1100.4806,415.3633,1101.104Q414.8534,1101.7273,414.8534,1102.5205L414.8534,1107.5066L441.93738,1107.5066L441.93738,1102.5205Q441.93738,1101.7272,441.4274,1101.104Q440.91748,1100.4806,440.18088,1100.3108Q439.16095,1100.084,433.55157,1099.0076L433.55157,1048.8062 Z M547.55347,1047.7295Q536.7312,1047.7295,528.0621,1057.1353L528.0621,1057.2485L527.1555,1050.9026Q526.4756,1048.806,524.37915,1048.806L509.9873,1048.8062L509.9873,1053.6791Q509.9873,1055.5488,511.57376,1055.8888Q512.48035,1056.172,518.3164,1057.2485L518.3164,1099.1774L511.57376,1100.4241Q509.9873,1100.7639,509.9873,1102.6338L509.9873,1107.5067L537.0145,1107.5066L537.0145,1102.6338Q537.0145,1100.7639,535.25806,1100.4241Q528.6854,1099.0073,528.5154,1099.0073L528.5154,1064.2178Q535.8814,1056.0022,544.5504,1056.002Q556.8459,1056.0018,556.8459,1070.167L556.8459,1107.5066L575.6573,1107.5066L575.6573,1102.5205Q575.6573,1100.707,573.7876,1100.3108Q572.37103,1099.8574,567.15826,1098.8943L567.15826,1069.9972Q567.15826,1060.025,562.1721,1053.9055Q557.0725,1047.7295,547.55347,1047.7295 Z M206.56789,1047.843Q200.05191,1047.843,194.95244,1049.9396Q189.73962,1052.0928,185.99998,1056.0022Q182.60033,1059.5718,180.33388,1065.5212Q178.46408,1070.4507,178.46408,1078.0431Q178.46408,1085.6357,180.33388,1090.5652Q182.60033,1096.5144,185.99998,1100.084Q189.68297,1103.9371,194.95244,1106.0901Q200.05191,1108.1865,206.56789,1108.1865Q213.0272,1108.1865,218.12668,1106.09Q223.39618,1103.937,227.07912,1100.0842Q230.5921,1096.4011,232.6319,1090.5652Q234.615,1084.8989,234.615,1078.0431Q234.615,1071.1871,232.6319,1065.5212Q230.5921,1059.6852,227.07912,1056.0022Q223.33952,1052.0925,218.12668,1049.9395Q213.0272,1047.843,206.56789,1047.843 Z M475.42404,1047.8428Q468.90796,1047.8428,463.8085,1049.9392Q458.5957,1052.0925,454.85614,1056.0022Q451.45642,1059.5717,449.18997,1065.5212Q447.32022,1070.4504,447.32022,1078.0431Q447.32022,1085.6357,449.18997,1090.5652Q451.45642,1096.5144,454.85614,1100.084Q458.53906,1103.937,463.8085,1106.09Q468.90796,1108.1864,475.42404,1108.1865Q481.88345,1108.1865,486.98285,1106.09Q492.2524,1103.937,495.9353,1100.084Q499.44824,1096.4011,501.48807,1090.5651Q503.47125,1084.8989,503.47125,1078.0428Q503.47125,1071.1869,501.48807,1065.5209Q499.44824,1059.6848,495.9353,1056.002Q492.19565,1052.0925,486.98285,1049.9395Q481.88345,1047.8428,475.42404,1047.8428 Z M338.24786,1047.6163Q330.9952,1047.6162,325.72577,1049.9395Q319.71967,1052.5459,315.2435,1056.9087L317.11328,1060.1383Q317.50995,1060.9882,318.3032,1061.5549Q318.92645,1062.0083,320.11633,1062.0083Q321.5895,1062.0083,322.7794,1061.1016Q322.94937,1060.9315,326.17902,1059.0049Q327.93552,1057.9286,330.59854,1056.9087Q333.2617,1055.8889,336.94464,1055.8888Q342.61075,1055.8888,345.6704,1059.4585Q348.67343,1062.9713,348.67343,1069.8839L348.67343,1074.4167Q338.70114,1074.4167,331.73178,1075.9465Q325.3291,1077.363,320.62625,1080.1394Q316.3767,1082.6892,314.33688,1085.919Q312.4671,1088.9219,312.4671,1092.6614Q312.4671,1096.7976,313.77032,1099.6307Q315.13022,1102.577,317.22662,1104.5034Q318.92645,1106.09,322.4394,1107.28Q325.44244,1108.2998,328.72873,1108.2998Q332.63843,1108.3,334.96152,1107.7334Q337.1713,1107.2234,340.1177,1105.977Q342.44073,1105.0137,344.70715,1103.2004Q348.0502,1100.4808,349.35336,1099.4038L350.54324,1104.9568Q350.93985,1106.6,351.67648,1106.8267Q353.03632,1107.28,354.11288,1107.28L366.18164,1107.28L366.18164,1102.294Q366.18164,1101.5007,365.67172,1100.8774Q365.21848,1100.2542,364.48184,1100.0842L364.48184,1100.3108Q363.74527,1100.0842,358.64572,1099.0073L358.64572,1069.6572Q358.64572,1064.4445,357.3992,1060.6482Q356.03937,1056.4553,353.43298,1053.6791Q350.88315,1050.9592,347.03027,1049.2595Q343.34732,1047.6163,338.24786,1047.6163 Z M384.99313,1029.7683Q383.97318,1029.7683,383.3499,1030.2217Q382.67,1030.7314,382.67,1031.6381L380.34695,1049.826L370.7145,1051.1293L370.7145,1055.1521Q370.7145,1056.512,371.2812,1056.9087Q371.90442,1057.3618,372.92435,1057.3618L379.9503,1057.3618L379.9503,1093.3413Q379.9503,1100.7639,383.6899,1104.5034Q387.59952,1108.4131,394.34222,1108.4131Q398.3084,1108.4131,402.16138,1107.0533Q405.4477,1105.8635,408.62073,1103.087L405.61768,1098.2142Q404.99445,1097.3079,404.2012,1097.3079Q403.97452,1097.3079,403.06793,1097.761Q402.84128,1097.8744,402.33136,1098.2144Q401.87805,1098.5542,401.65146,1098.6677Q400.46158,1099.404,399.61166,1099.6307Q398.02518,1100.0842,396.66528,1100.0842Q393.6623,1100.0842,391.90582,1098.3276Q390.20596,1096.6278,390.20596,1092.775L390.20596,1057.4752L407.0342,1057.4751L407.0342,1049.9392L390.20596,1049.9395L390.20596,1029.7686 Z"/>
</g>
</g>
<g style="fill:rgb(0,0,0); fill-opacity:1.0; stroke-linejoin: miter">
<path d="M520.1349,491.54202L520.13513,491.54224L346.48,343.8008Q468.6991,201.42497,590.91815,59.04913Q706.8052,61.029568,822.6922,63.010006L520.1349,491.54202"/>
</g>
<g style="fill:rgb(0,0,0); fill-opacity:1.0; stroke-linejoin: miter">
<path d="M557.7982,1161.8837L557.79803,1161.8849L557.7979,1161.8862L557.7982,1161.8837"/>
</g>
</g>
</svg>